<svg id="Capa_1" data-name="Capa 1" xmlns="http://www.w3.org/2000/svg" viewBox="0 0 50 50"><defs><style>.cls-1{fill:none;stroke:#333;stroke-linecap:round;stroke-linejoin:round;stroke-width:1.5px;}</style></defs><title>Iconos_Origenes_Final</title><path class="cls-1" d="M38.1,20.11c1.36-.85,2.85-1.58,4.29-2.33,1-.51,4.16-1,4.66-2.12.74-1.62-1.16-1.81-1.27-3-.1-1,3.14-3.29-.26-3.29h0c-2.91,0-7.86,1.88-10.44,3a6.22,6.22,0,0,0-2.85,2.23c-.6.8-1.38,2.22-2.29,2.64-2,.9-4.23-.74-6.11-.67-1,0-2.69.9-3.78,1.14-2.67.59-4.72.52-7.28.86-1.72.23-3.41-.75-4.77-.65a14.74,14.74,0,0,0-4,1.35C2.6,21.1,2.6,25.31,3,27c.35,1.39,0,4,1.82,3.39,1.64-.57.52-2.4,1.09-3,1.92-2.08,4.46,0,6.42.27s1.91.29,4.08-.74c1.26-.6,2.08-1.24,3.09-.49,0,0-.37,1.53-.17,1.69,1,.84,1.55-.16,2.16.28a10.74,10.74,0,0,1,1.3,2.54c-2.37.8-4.25,2.1-3.59,5.76a6.08,6.08,0,0,0,2.28,3.57c1.47.74,3.19.2,4.65-1.63.9-1.14.71-2.07,1.67-2.62,1.8-1,3.63-2,5.44-3.06a5.91,5.91,0,0,0,3-4.17,16.19,16.19,0,0,0-.36-7.2,19.24,19.24,0,0,1-2.06,1.9q-2.28,1.57-4.71,3a6.92,6.92,0,0,0-3.73,4.34,10.06,10.06,0,0,0,.45,4.72c.86-5.82,5.89-5.9,7.54-8.32"/></svg>