<svg id="Capa_1" data-name="Capa 1" xmlns="http://www.w3.org/2000/svg" viewBox="0 0 50 50"><defs><style>.cls-1,.cls-2{fill:none;stroke:#333;stroke-linecap:round;stroke-linejoin:round;stroke-width:1.5px;}.cls-2{fill-rule:evenodd;}</style></defs><title>Iconos_Origenes_Final</title><path class="cls-1" d="M33.21,25.5a13.75,13.75,0,0,1-1.87-2.71C30,19.9,30.25,20,28.72,19.4c1-2.11-2.84-6.6-4.47-8.5-.94-1.08-3.2-3.65-4.42-4.08-3.15-1.1-2.78,1.48-4.2,1.77.27-.46.2-.69-.22-.7-2.41,2,2.8.61,2.6.6.39,0,1.49,5.63-1,6.07,0-1.2-2.65-1.85-2.68-.32,4.5.78,1.1,3.92,1.5,6.14-3.2,2.44.3,14.33,1.26,17.58C18.26,42,20.23,43,22.89,43.39c3.25.45,8.87-1.8,10.62-3.43a12.29,12.29,0,0,0,3.54-5.27,19.19,19.19,0,0,0,.63-8.57A22.25,22.25,0,0,1,35,28.07c-2,1-4,1.95-6,2.79-2.28.94-3.16,2.24-4,4.58a11.83,11.83,0,0,0-.16,5.65c1.86-6.76,6.82-6.11,9.12-8.73"/><path class="cls-2" d="M12.11,9.41c1.07-.63,1.25.94.65.94Z"/></svg>