<svg id="Capa_1" data-name="Capa 1" xmlns="http://www.w3.org/2000/svg" viewBox="0 0 50 50"><defs><style>.cls-1{fill:none;stroke:#333;stroke-linecap:round;stroke-linejoin:round;stroke-width:1.5px;}</style></defs><title>Iconos_Origenes_Final</title><path class="cls-1" d="M38.47,26.73c0-.7,2-1.23,1.87-1.65-.59-1.81-1.39-.16-2.71-.41.32.06-.83-1.07-.86-.73,0,0,1.78-1.89,1.75-1.91-.2-.07-.28,2.08.19,1.9,1.37-.54,3-2.56,4.09-3.51a9.24,9.24,0,0,0,.89-.73c1.36-1.48.79-2.07,1.34-3.54.31-.8,2.62-2.66,1.11-4.12s-1,.84-2.48.56c-2.73-.5-3.54-4.6-6.44-4.6h0C35.69,8,34,11.63,33.57,12.5c-1.84,3.76,1.79,3.41,1.94,3-.57,1.75-3.68,1.52-4.7,2.25s-.44,1.68-2,2.59c-2.18,1.28-2.44.47-4.45.34-2.58-.17-6-1.12-7.64-3.18-.51-.64,0-3.43-1.88-3.8-1-.2-2.58,1.58-2.44,1.6C8.43,14.42,9,18.57,6,20c-2.29,1.07-3.74.08-3,3.14.29,1.24,3.52,3.49,3.55,3.09-.23,2.71-3.62,1.28-.32,4.95a15.06,15.06,0,0,0,7,4c1.88.24,4.31-1.27,5.87-.61,2.81,1.2.59,2.2,1.29,4.6.21.71,2.07,2.8,3.33,2.85.6,0,.55-1.25,1.6-1.46,2.35-.48,1.67.09,3.22.62a9.46,9.46,0,0,0,3.92.69,4.88,4.88,0,0,0,1.29-.59c1.23-1,1.4-1.69,2.52-2.16,2.1-.89,4.23-1.74,6.34-2.62a6.52,6.52,0,0,0,3.86-4.14A18,18,0,0,0,47,24.44a20.67,20.67,0,0,1-2.5,1.8c-1.8.94-3.65,1.81-5.53,2.59-2.11.87-3.84,2.08-4.65,4.24a10.9,10.9,0,0,0-.13,5.21c1.7-6.24,7.21-5.65,9.33-8.08"/></svg>