<svg id="Capa_1" data-name="Capa 1" xmlns="http://www.w3.org/2000/svg" viewBox="0 0 50 50"><defs><style>.cls-1{fill:none;stroke:#333;stroke-linecap:round;stroke-linejoin:round;stroke-width:1.5px;}</style></defs><title>Iconos_Origenes_Final</title><path class="cls-1" d="M44.52,29c-1.66,2.44-6.73,2.51-7.59,8.38a10.1,10.1,0,0,1-.46-4.76,7,7,0,0,1,3.76-4.37q2.45-1.38,4.75-3a18.55,18.55,0,0,0,2.07-1.92,16.32,16.32,0,0,1,.36,7.26,5.94,5.94,0,0,1-3,4.2c-1.83,1-3.67,2-5.49,3.09-1,.55-1,1.22-2,2.24a2.71,2.71,0,0,1-1,.44,25.09,25.09,0,0,1-2.73-.92c-.65-.24-1.27.07-2.14-.4a36.3,36.3,0,0,1-3.68-2.87c-1-1.36-.86-3.18-1.58-4.62-.42-.85-.19-1-1.28-1.65-2.5-1.53-.79.07-.29.94.21.38,2.06,1.72,1.68,2.4-.6,1.09-2.25,1.44-2.41.6-.44-2.36-3.89-.81-1.85-.09.31.11-1.92-.4-1.5-.43.67,0-3.28.26-2.75-.28s-.21-1.08-.15-1.13c3.07-2.39,2-1.61.27-1.22-2,.46-4.09-3.68-5.79-4.65-.26-.15-.08-1.26-.14-1.27-1-.24-1,.37-1.81.45-1.23.13-2.2,2.06-3.7,1.61s.86-5.3.43-7.46C6,17.23.52,13,3,10.21c2-2.24,1.8.85,2.92,1.58a15.81,15.81,0,0,0,6.47,1c1.45-.31,1.73-1.62,3.41-1.79a6.22,6.22,0,0,1,2.46.31A7.12,7.12,0,0,1,21,12.71c.51.56.76,3.15.83,3.18.54.25.79-.15,1.64.51.29.22-.08.59.28.79s1.44.08,2.1.48c.88.54.53,1.64,1.63,1.92,1.55.41,3.76-.59,5.32-.42a15.39,15.39,0,0,1,3.93.95c1.22.68.66,1.35,1.12,1.84s4.57-.41,4.49-.45a3.1,3.1,0,0,1,1.39,2.57"/></svg>