<svg id="Capa_1" data-name="Capa 1" xmlns="http://www.w3.org/2000/svg" viewBox="0 0 50 50"><defs><style>.cls-1{fill:none;stroke:#333;stroke-linecap:round;stroke-linejoin:round;stroke-width:1.5px;}</style></defs><title>Iconos_Origenes_Final</title><path class="cls-1" d="M28.75,17.21a1.39,1.39,0,0,0-1.12-.59h0c-1.91,0-1-.27-1.69,1.38-.27.65-1.47,2.81.19,2.93s-3,9-4.25,7.5c-.35-.41.79-3.16-.93-.81-.53.73-.4,2.91-1.1,3.65-1.2,1.26-4.4.52-6.43,1.73-1.25.76-3.78,2.56-2.31,3.5s1.67-.59,2-.65c.93-.18,5.27-2.81,6-1.48.58,1.1-1,3.44,1.55,2,.75-.43,1.58-3.56,1.93-2.7.74,1.77,2.12-2.24,2.59-1.17.1.23.36.94.68,1,.85.22,2.46-2.91,2.71-3.21a6.41,6.41,0,0,1,2.7-2.36c2.28-1,4.58-1.93,6.86-2.89a7.06,7.06,0,0,0,4.14-4.52,19.5,19.5,0,0,0,.55-8.58,23.27,23.27,0,0,1-2.7,2q-2.93,1.54-6,2.85c-2.28,1-4.14,2.28-5,4.63A12,12,0,0,0,29,27c1.79-6.78,7.76-6.19,10-8.83"/><path class="cls-1" d="M27.63,5.16c-.76,0-.17,3.69-.41,4.5-.36,1.21-1.26.46-1.39.79-.55,1.42-1.39,3-.41,4.6.16.26,2.14-.78,2.16-.91.24-1.09-.4-.53-.37-1.22a.34.34,0,0,1,.27-.35c3.19-.67,4.3,1.94,6.15-2.16.6-1.34-1.32-1.65-.15-3.11,1-1.18-3,.8-2.86.29.3-1.12-1.84-2.43-3-2.43Z"/><path class="cls-1" d="M9.11,37.78c-3.43,0-2,5.49-.57,3.41.19-.26-2.17,5.38,1.57,3.12,1.64-1,2-6.53-1-6.53Z"/><path class="cls-1" d="M16.74,36.7c-1.25.45-5.43,2.5-3,4,1,.64,5.87-4,3-4Z"/></svg>