<svg id="Capa_1" data-name="Capa 1" xmlns="http://www.w3.org/2000/svg" viewBox="0 0 50 50"><defs><style>.cls-1{fill:none;stroke:#333;stroke-linecap:round;stroke-linejoin:round;stroke-width:1.5px;}</style></defs><title>Iconos_Origenes_Final</title><path class="cls-1" d="M35.12,25.36c-.59-3.84-.57-9,.47-11.59.25-.6,1.44-1.32,1.84-1.84S39.37,10,39,9.31c-.22-.4-1.38.1-1.83,0-.63-.13-1.71-1-2.35-1.05a6.16,6.16,0,0,0-2.88.53c-.36.21-.71,1.05-1,1.31a6.11,6.11,0,0,1-1.84.78,5.89,5.89,0,0,1-1.57,0c-.47-.06-1.36-.45-1.83-.52-.26,0-.79,0-1,0A6,6,0,0,1,23,9.84c-.24-.15-.57-.62-.79-.79a26.62,26.62,0,0,0-2.88-1.57,6.37,6.37,0,0,0-1-.53C17.75,6.82,16.56,7,16,7c-.26,0-.78-.23-1-.26s-1,0-1.31,0c-1,0-3.19-.3-4.19,0a2.73,2.73,0,0,0-.78.52c-.34.34-1.09,1.11-1.05,1.58,0,.09.18.21.26.26.24.13.88,0,1,.26s-.05.4,0,.53.22.18.26.26c.29.53.23,1.83.52,2.36a1.87,1.87,0,0,0,.53.52c.17.11.61.16.78.27a1.65,1.65,0,0,1,.53.52,8.14,8.14,0,0,1,.26,2.62A10.53,10.53,0,0,1,11.53,19a4.47,4.47,0,0,1-.53.78c-.36.48-1.2,1.36-1.57,1.84A11.14,11.14,0,0,0,7.86,24a2.65,2.65,0,0,0,0,1.05,5.65,5.65,0,0,0,.53.78c.07.13.13.46.26.53.35.18,1.17-.23,1.57-.26.19,0,.64-.14.78,0s0,.2,0,.26-.6.17-.78.26-.56.46-.79.52-.61-.1-.78,0a1.46,1.46,0,0,0-.52,1.05c0,.19.37.41.52.53,3.18,2.46,11.5,4.88,13.86,8.13.36.49.29,1.8.53,2.36a3,3,0,0,0,.52.78c1.16,1.13,3.93,3.82,5.49,3.41a1.47,1.47,0,0,0,.55-.33c1.14-1.3,1.28-2,2.41-2.65,2.15-1.24,4.33-2.43,6.49-3.65a7.07,7.07,0,0,0,3.6-5,19.53,19.53,0,0,0-.43-8.58,25.84,25.84,0,0,1-2.45,2.27c-1.82,1.24-3.69,2.42-5.61,3.5-2.16,1.22-3.86,2.74-4.45,5.17a12,12,0,0,0,.54,5.63c1-6.94,7-7,9-9.91"/></svg>