<svg id="Capa_1" data-name="Capa 1" xmlns="http://www.w3.org/2000/svg" viewBox="0 0 50 50"><defs><style>.cls-1{fill:none;stroke:#333;stroke-linecap:round;stroke-linejoin:round;stroke-width:1.5px;}</style></defs><title>Iconos_Origenes_Final</title><path class="cls-1" d="M38.37,29.05c-2,2.89-7.95,3-9,9.92a12,12,0,0,1-.54-5.63c.59-2.43,2.29-4,4.44-5.17q2.89-1.64,5.62-3.51a23.46,23.46,0,0,0,2.45-2.27A19.55,19.55,0,0,1,41.8,31a7.09,7.09,0,0,1-3.6,5c-2.16,1.22-4.53,2.12-6.49,3.64-.79.62-1.58,2.61-2,3.5-2.17,4.2-4.32.23-6.05-2.45-3.09-4.78-3.79-10.7-5.73-16-1.15-3.17-2-6.82-4-9.52C12.35,13,7.16,8.58,8,5.58c.63-2.26,5.11,3.95,5.46,4.29a13.56,13.56,0,0,0,2.83,2c.85.5,2.34.21,2.77.45,0,0,1.35,1.33,1.48,1.49.87,1.09.64,2.71.22,2-.81-1.26.59,2.31.43,1.45-.09-.52,1.22,1.46,1.47,1.14.37-.48-.87.62-.74.94.29.7,2.1,0,2.72.62.77.72-1.14,1-.81,1.73a3.53,3.53,0,0,1,1.95.95c.46.51-.1.89-.28,1.64-.32,1.32-.45,2.43.62,3.57s2.62-2.24,3,1"/></svg>